PathFileType	4	(X/Y/Z)	OpenSim_Sub02_CSStiffKnee_Magnet.trc
DataRate	CameraRate	NumFrames	NumMarkers	Units	OrigDataRate	OrigDataStartFrame	OrigNumFrames
100	100	36	8	m	100	1723	6891
Frame#	Time	torso_imu_offset_imu	pelvis_imu_offset_imu	tibia_r_imu_offset_imu	femur_r_imu_offset_imu	tibia_l_imu_offset_imu	femur_l_imu_offset_imu	toes_r_imu_offset_imu	toes_l_imu_offset_imu
				X1	Y1	Z1	X2	Y2	Z2	X3	Y3	Z3	X4	Y4	Z4	X5	Y5	Z5	X6	Y6	Z6	X7	Y7	Z7	X8		Y8	Z8	

1723	17.22000000	-0.96491691	-0.09115483	0.04286914	-0.65269827	0.15929665	-0.67905547	-0.24680276	-0.74277475	-0.33257611	-0.71768427	-0.45312689	0.13902463	-0.62060484	0.57438488	0.07133048	-0.57512620	0.21573467	0.29701430	-0.83746820	-0.44302844	-0.14977493	-0.70993026	-0.15454160	-0.47067348
1724	17.23000000	-0.96291325	-0.09141488	0.05176924	-0.65291298	0.16692106	-0.67420402	-0.23189076	-0.74388421	-0.33970757	-0.71815036	-0.44281227	0.14486709	-0.60039802	0.59886554	0.07529319	-0.57103027	0.22088565	0.29367650	-0.84281217	-0.44801914	-0.11531130	-0.71465431	-0.16091561	-0.46307918
1725	17.24000000	-0.96780313	-0.09333263	0.03836923	-0.64835145	0.17830902	-0.67645781	-0.21909289	-0.75266985	-0.34580420	-0.72716352	-0.43976964	0.14126433	-0.60319075	0.60892727	0.06106710	-0.57222050	0.21978005	0.30009735	-0.83770526	-0.45387601	-0.07519188	-0.71844549	-0.16357073	-0.45638901
1726	17.25000000	-0.96096135	-0.09752890	0.03876068	-0.65195634	0.17925685	-0.66741476	-0.19688361	-0.74873913	-0.34872823	-0.74007056	-0.43080030	0.13969835	-0.60178602	0.60420146	0.03495501	-0.57339808	0.22515087	0.29710288	-0.83605452	-0.46557929	-0.03172854	-0.72080019	-0.17042295	-0.44594745
1727	17.26000000	-0.96131519	-0.10605191	0.03351040	-0.64860075	0.18590756	-0.66116771	-0.18111414	-0.75518686	-0.34754457	-0.74368984	-0.41296228	0.13777464	-0.59695915	0.59754909	0.02516558	-0.56631535	0.23920800	0.29689989	-0.83302023	-0.47303014	0.01869877	-0.72804589	-0.17780190	-0.43391182
1728	17.27000000	-0.95912699	-0.10498834	0.03468396	-0.65281320	0.19671986	-0.66944766	-0.15266386	-0.75513044	-0.35745246	-0.75564287	-0.40576992	0.13053517	-0.59263196	0.60587722	0.02316627	-0.55663135	0.24451217	0.29533365	-0.82316075	-0.48639722	0.06298643	-0.73245641	-0.18505499	-0.42955411
1729	17.28000000	-0.95917958	-0.11939584	0.02633982	-0.65147051	0.19704956	-0.67017291	-0.13222627	-0.75919697	-0.36219238	-0.75784007	-0.39016978	0.12075217	-0.58869027	0.61463768	0.02337005	-0.54826460	0.25988132	0.29623628	-0.81013368	-0.49373183	0.10301821	-0.72736765	-0.18252872	-0.42392141
1730	17.29000000	-0.95785814	-0.12756461	0.02534117	-0.65503287	0.20551438	-0.66785036	-0.11655752	-0.75870652	-0.36278648	-0.76824122	-0.36983825	0.10290822	-0.58330458	0.62284172	0.02798694	-0.54751908	0.26476392	0.28966182	-0.79467898	-0.51268136	0.13611862	-0.72621922	-0.18923398	-0.42260242
1731	17.30000000	-0.95449665	-0.13051642	0.02324073	-0.65071468	0.20646249	-0.66644148	-0.09300073	-0.76208965	-0.36267958	-0.77814124	-0.36400549	0.09895578	-0.57511312	0.62649413	0.03084852	-0.53616460	0.27020730	0.29033010	-0.77670315	-0.52949724	0.13826405	-0.72825208	-0.19911242	-0.41091029
1732	17.31000000	-0.95915047	-0.14211940	0.02429987	-0.65095364	0.20678443	-0.66881424	-0.07522186	-0.76720393	-0.35132783	-0.78464542	-0.34798940	0.08382088	-0.57401558	0.62857234	0.02455256	-0.53480197	0.27849628	0.29411597	-0.75166753	-0.55819671	0.13126679	-0.72993898	-0.20425841	-0.40485493
1733	17.32000000	-0.95929058	-0.15187391	0.02704688	-0.64844944	0.20902087	-0.66833447	-0.06146113	-0.76845085	-0.34662446	-0.79037227	-0.33483436	0.06866029	-0.57040144	0.63471091	0.01610275	-0.53778734	0.28248031	0.30097890	-0.72455762	-0.58851382	0.11545712	-0.73277113	-0.21511518	-0.39748520
1734	17.33000000	-0.95507154	-0.15768083	0.02902614	-0.64658591	0.21466362	-0.66998756	-0.05515716	-0.77562677	-0.34186027	-0.79348820	-0.32732068	0.06661289	-0.56294614	0.64448173	0.01467261	-0.52714794	0.28632654	0.29711285	-0.70316671	-0.61137051	0.09187087	-0.73556450	-0.21499522	-0.38826177
1735	17.34000000	-0.95228871	-0.16410980	0.02644777	-0.64469936	0.22156362	-0.67638383	-0.06100824	-0.76618619	-0.35662558	-0.80245453	-0.31755091	0.04745348	-0.56301731	0.64686520	0.01307431	-0.52178419	0.28667152	0.30436183	-0.67986851	-0.64031467	0.06833792	-0.73176876	-0.21502766	-0.37988349
1736	17.35000000	-0.94924083	-0.17054786	0.02547262	-0.64195995	0.22202910	-0.67311598	-0.06770095	-0.74826504	-0.38424751	-0.80827256	-0.30398697	0.03822129	-0.55875380	0.65309316	0.00740739	-0.52778710	0.29130792	0.29892388	-0.66480431	-0.65059027	0.04719258	-0.73683559	-0.22314925	-0.37307142
1737	17.36000000	-0.95254129	-0.17643330	0.02770132	-0.63887996	0.22831616	-0.67150339	-0.07867242	-0.72703143	-0.41852019	-0.81286189	-0.29504633	0.02783263	-0.55583662	0.65282527	0.00855213	-0.51925827	0.29656846	0.29293248	-0.66081668	-0.65241408	0.02280482	-0.73752580	-0.22375678	-0.36290321
1738	17.37000000	-0.94826368	-0.18079924	0.02845074	-0.64176368	0.23386325	-0.67220101	-0.09905531	-0.70699234	-0.44767523	-0.82034087	-0.27729891	0.02421338	-0.54919356	0.65869144	0.00233456	-0.51141861	0.30471160	0.29760529	-0.66238044	-0.65175708	0.00135779	-0.73560070	-0.23275565	-0.34986107
1739	17.38000000	-0.94710369	-0.18384224	0.03285188	-0.64040092	0.24590723	-0.67161209	-0.11795325	-0.68957329	-0.47363938	-0.82554738	-0.26192192	0.01164448	-0.54541549	0.66706285	0.00323609	-0.51233909	0.30992447	0.28658021	-0.66520031	-0.63629959	-0.02633587	-0.73728423	-0.23353426	-0.34136915
1740	17.39000000	-0.94211641	-0.18238114	0.03122030	-0.63519487	0.24943986	-0.66737757	-0.13828871	-0.66950018	-0.49092469	-0.82708992	-0.25238278	0.00634575	-0.54058546	0.67068985	-0.00330065	-0.51623955	0.32032957	0.28979867	-0.68054806	-0.62446539	-0.05485389	-0.73572494	-0.23143362	-0.33191144
1741	17.40000000	-0.94610436	-0.18993412	0.02859271	-0.63732184	0.25626873	-0.66802001	-0.16512863	-0.65848023	-0.50365209	-0.83462046	-0.24110700	0.00540184	-0.53369542	0.67268478	-0.00024510	-0.50638777	0.32766378	0.28662544	-0.69127972	-0.60954735	-0.08793230	-0.74099118	-0.23201017	-0.32028874
1742	17.41000000	-0.94388329	-0.19484172	0.03289500	-0.63578858	0.25858902	-0.66866482	-0.19381561	-0.65360014	-0.50161478	-0.83296598	-0.22678865	0.00016480	-0.52767799	0.67542229	-0.00169286	-0.50926536	0.33699658	0.28097132	-0.70665427	-0.59334994	-0.11859551	-0.74539795	-0.23485601	-0.31001507
1743	17.42000000	-0.94588569	-0.19496203	0.03379679	-0.63722225	0.25818687	-0.67020185	-0.21992631	-0.65120085	-0.48348061	-0.83837026	-0.22056563	-0.00173714	-0.52322738	0.68316805	-0.00707802	-0.50481666	0.33735087	0.27272509	-0.72163767	-0.57598996	-0.15920036	-0.74854836	-0.23962402	-0.30280255
1744	17.43000000	-0.94261678	-0.19991254	0.03985835	-0.63329594	0.26630591	-0.66855453	-0.25406769	-0.64815827	-0.47026877	-0.84132649	-0.21747100	-0.00115610	-0.51675336	0.69041937	-0.01095254	-0.50486229	0.34718512	0.26685049	-0.73225780	-0.55309592	-0.20093390	-0.74954654	-0.24302165	-0.29117478
1745	17.44000000	-0.94228567	-0.20651079	0.04104625	-0.63295557	0.26840226	-0.67148143	-0.28782505	-0.65349204	-0.44776572	-0.84252096	-0.20699070	-0.00047869	-0.51254375	0.69033566	-0.00728685	-0.50074607	0.35193144	0.25740364	-0.73221351	-0.53374995	-0.25106654	-0.75572777	-0.24021367	-0.27974727
1746	17.45000000	-0.94722710	-0.21209671	0.04621509	-0.62908016	0.27148391	-0.66960132	-0.31929118	-0.65338024	-0.41805673	-0.84901744	-0.20139211	-0.00476814	-0.50838270	0.69540821	-0.00527995	-0.49780807	0.35260874	0.26368145	-0.73096008	-0.51658668	-0.29787573	-0.75915903	-0.23920146	-0.26597676
1747	17.46000000	-0.93934784	-0.21418510	0.04294495	-0.62920296	0.27020056	-0.66345650	-0.35010072	-0.64830872	-0.39002838	-0.84728674	-0.19458088	-0.00204117	-0.50659681	0.69931979	-0.01215441	-0.49246972	0.35973986	0.26631625	-0.71390634	-0.49211352	-0.34929715	-0.76677272	-0.24084965	-0.25685963
1748	17.47000000	-0.93679317	-0.21888082	0.04932183	-0.62714642	0.27348111	-0.66730392	-0.39403908	-0.64945643	-0.36596872	-0.84502215	-0.18698114	-0.00370892	-0.50019387	0.70500423	-0.01176469	-0.49156596	0.36252047	0.26088913	-0.68883988	-0.46229120	-0.39046349	-0.76788186	-0.23590947	-0.25390948
1749	17.48000000	-0.93859554	-0.22186250	0.05120336	-0.62744398	0.27015630	-0.67156020	-0.41890272	-0.63751377	-0.34479077	-0.85099497	-0.18592900	-0.00837352	-0.48840297	0.71255527	-0.01560583	-0.48610920	0.36381352	0.25774977	-0.66252284	-0.42777171	-0.42827420	-0.77659619	-0.23493454	-0.24162755
1750	17.49000000	-0.93627991	-0.21977559	0.06032248	-0.62676522	0.27707217	-0.67364932	-0.45382008	-0.62522880	-0.33207358	-0.85129894	-0.18514249	-0.00956009	-0.48994082	0.71316812	-0.02254888	-0.48798310	0.36967747	0.26340163	-0.63620977	-0.39493301	-0.45545104	-0.77871491	-0.23733481	-0.23096619
1751	17.50000000	-0.93654623	-0.22325736	0.05626693	-0.62250931	0.27403555	-0.67682489	-0.48489367	-0.60931466	-0.32514193	-0.85479509	-0.18159124	-0.00752711	-0.48542993	0.72274945	-0.02646315	-0.48059435	0.36952334	0.26180776	-0.61389664	-0.37064916	-0.47595212	-0.78568314	-0.23302620	-0.22227299
1752	17.51000000	-0.93625542	-0.23233293	0.06440750	-0.61953489	0.26552573	-0.67954305	-0.51472661	-0.58145951	-0.31363298	-0.85342488	-0.18180245	-0.00822151	-0.47591153	0.72824888	-0.02666797	-0.47752917	0.37598753	0.25037391	-0.59657823	-0.33624897	-0.47405373	-0.79005962	-0.22590489	-0.21655885
1753	17.52000000	-0.93580155	-0.23283749	0.06791080	-0.61719106	0.26623044	-0.67877693	-0.54339731	-0.54975295	-0.31852384	-0.85297038	-0.18254023	-0.01020229	-0.47586464	0.72606120	-0.02627916	-0.47473164	0.38527470	0.25921408	-0.57076562	-0.31182803	-0.48932939	-0.79114834	-0.22799113	-0.21058396
1754	17.53000000	-0.93395921	-0.22406848	0.06932694	-0.61914313	0.25613393	-0.68407428	-0.57267251	-0.52296937	-0.32901517	-0.84184966	-0.18600245	-0.00948818	-0.46788683	0.72157785	-0.02752420	-0.46826021	0.38880445	0.25695539	-0.55599536	-0.28612730	-0.50261322	-0.78995535	-0.21974612	-0.20061875
1755	17.54000000	-0.93479441	-0.23182412	0.07024846	-0.61187509	0.25748701	-0.67964079	-0.59661108	-0.48567273	-0.33059735	-0.84689653	-0.18622929	-0.01060106	-0.46225651	0.73171367	-0.03445058	-0.46432600	0.40215357	0.24190518	-0.54232208	-0.27070771	-0.51166487	-0.79529403	-0.21284161	-0.19872750
1756	17.55000000	-0.93517300	-0.23190739	0.07453901	-0.61566570	0.25394263	-0.68582111	-0.61629715	-0.46033974	-0.33828906	-0.84327437	-0.19094682	-0.01418901	-0.45803833	0.73673382	-0.03728738	-0.45799496	0.41041526	0.24126620	-0.53289713	-0.25700346	-0.52752473	-0.80336823	-0.21212906	-0.19065331
1757	17.56000000	-0.93029820	-0.22792839	0.07655832	-0.61166535	0.24777914	-0.69190647	-0.63129830	-0.43472170	-0.33691994	-0.83905245	-0.19798984	-0.01497058	-0.45409693	0.73974036	-0.04401386	-0.45512156	0.41886061	0.23392977	-0.52205027	-0.24632761	-0.54405386	-0.81344033	-0.20282116	-0.18249391
1758	17.57000000	-0.93729115	-0.22825531	0.08131833	-0.61263031	0.24374456	-0.69239055	-0.65421226	-0.40829291	-0.32856300	-0.83768402	-0.20817598	-0.01652939	-0.44776719	0.74558023	-0.04272797	-0.45445953	0.42582541	0.21908307	-0.50731528	-0.23446585	-0.56124211	-0.81284634	-0.19343699	-0.17801813
